<mxfile host="app.diagrams.net" modified="2020-10-26T23:44:14.471Z" agent="5.0 (Windows NT 10.0; Win64; x64) AppleWebKit/537.36 (KHTML, like Gecko) Chrome/86.0.4240.111 Safari/537.36" etag="2b8nPx4rkTt98UPYaLD6" version="13.8.3" type="github">
  <diagram id="C5RBs43oDa-KdzZeNtuy" name="Page-1">
    <mxGraphModel dx="920" dy="831" grid="1" gridSize="10" guides="1" tooltips="1" connect="1" arrows="1" fold="1" page="1" pageScale="1" pageWidth="827" pageHeight="1169" math="0" shadow="0">
      <root>
        <mxCell id="WIyWlLk6GJQsqaUBKTNV-0" />
        <mxCell id="WIyWlLk6GJQsqaUBKTNV-1" parent="WIyWlLk6GJQsqaUBKTNV-0" />
        <mxCell id="sxD2ZKE1S-4c3hexJ4eB-41" value="participa" style="endArrow=open;html=1;endSize=12;startArrow=diamondThin;startSize=14;startFill=0;edgeStyle=orthogonalEdgeStyle;exitX=1;exitY=0.5;exitDx=0;exitDy=0;" parent="WIyWlLk6GJQsqaUBKTNV-1" source="sxD2ZKE1S-4c3hexJ4eB-35" target="sxD2ZKE1S-4c3hexJ4eB-5" edge="1">
          <mxGeometry relative="1" as="geometry">
            <mxPoint x="160" y="515" as="sourcePoint" />
            <mxPoint x="360" y="540" as="targetPoint" />
          </mxGeometry>
        </mxCell>
        <mxCell id="sxD2ZKE1S-4c3hexJ4eB-42" value="1..n" style="edgeLabel;resizable=0;html=1;align=left;verticalAlign=top;" parent="sxD2ZKE1S-4c3hexJ4eB-41" connectable="0" vertex="1">
          <mxGeometry x="-1" relative="1" as="geometry" />
        </mxCell>
        <mxCell id="sxD2ZKE1S-4c3hexJ4eB-43" value="1" style="edgeLabel;resizable=0;html=1;align=right;verticalAlign=top;" parent="sxD2ZKE1S-4c3hexJ4eB-41" connectable="0" vertex="1">
          <mxGeometry x="1" relative="1" as="geometry" />
        </mxCell>
        <mxCell id="sxD2ZKE1S-4c3hexJ4eB-44" value="tem" style="endArrow=open;html=1;endSize=12;startArrow=diamondThin;startSize=14;startFill=0;edgeStyle=orthogonalEdgeStyle;exitX=1.025;exitY=0.846;exitDx=0;exitDy=0;entryX=0;entryY=0.5;entryDx=0;entryDy=0;exitPerimeter=0;" parent="WIyWlLk6GJQsqaUBKTNV-1" source="sxD2ZKE1S-4c3hexJ4eB-29" target="sxD2ZKE1S-4c3hexJ4eB-27" edge="1">
          <mxGeometry relative="1" as="geometry">
            <mxPoint x="330" y="360" as="sourcePoint" />
            <mxPoint x="490" y="360" as="targetPoint" />
          </mxGeometry>
        </mxCell>
        <mxCell id="sxD2ZKE1S-4c3hexJ4eB-45" value="0..n" style="edgeLabel;resizable=0;html=1;align=left;verticalAlign=top;" parent="sxD2ZKE1S-4c3hexJ4eB-44" connectable="0" vertex="1">
          <mxGeometry x="-1" relative="1" as="geometry" />
        </mxCell>
        <mxCell id="sxD2ZKE1S-4c3hexJ4eB-46" value="1" style="edgeLabel;resizable=0;html=1;align=right;verticalAlign=top;" parent="sxD2ZKE1S-4c3hexJ4eB-44" connectable="0" vertex="1">
          <mxGeometry x="1" relative="1" as="geometry" />
        </mxCell>
        <mxCell id="zkfFHV4jXpPFQw0GAbJ--0" value="Cliente" style="swimlane;fontStyle=2;align=center;verticalAlign=top;childLayout=stackLayout;horizontal=1;startSize=26;horizontalStack=0;resizeParent=1;resizeLast=0;collapsible=1;marginBottom=0;rounded=0;shadow=0;strokeWidth=1;" parent="WIyWlLk6GJQsqaUBKTNV-1" vertex="1">
          <mxGeometry x="40" y="60" width="160" height="316" as="geometry">
            <mxRectangle x="230" y="140" width="160" height="26" as="alternateBounds" />
          </mxGeometry>
        </mxCell>
        <mxCell id="sxD2ZKE1S-4c3hexJ4eB-110" value="-idCliente:Integer" style="text;align=left;verticalAlign=top;spacingLeft=4;spacingRight=4;overflow=hidden;rotatable=0;points=[[0,0.5],[1,0.5]];portConstraint=eastwest;" parent="zkfFHV4jXpPFQw0GAbJ--0" vertex="1">
          <mxGeometry y="26" width="160" height="26" as="geometry" />
        </mxCell>
        <mxCell id="zkfFHV4jXpPFQw0GAbJ--1" value="-nome:String" style="text;align=left;verticalAlign=top;spacingLeft=4;spacingRight=4;overflow=hidden;rotatable=0;points=[[0,0.5],[1,0.5]];portConstraint=eastwest;" parent="zkfFHV4jXpPFQw0GAbJ--0" vertex="1">
          <mxGeometry y="52" width="160" height="26" as="geometry" />
        </mxCell>
        <mxCell id="zkfFHV4jXpPFQw0GAbJ--2" value="-endereÃ§o:String" style="text;align=left;verticalAlign=top;spacingLeft=4;spacingRight=4;overflow=hidden;rotatable=0;points=[[0,0.5],[1,0.5]];portConstraint=eastwest;rounded=0;shadow=0;html=0;" parent="zkfFHV4jXpPFQw0GAbJ--0" vertex="1">
          <mxGeometry y="78" width="160" height="26" as="geometry" />
        </mxCell>
        <mxCell id="zkfFHV4jXpPFQw0GAbJ--3" value="-telefone:String" style="text;align=left;verticalAlign=top;spacingLeft=4;spacingRight=4;overflow=hidden;rotatable=0;points=[[0,0.5],[1,0.5]];portConstraint=eastwest;rounded=0;shadow=0;html=0;" parent="zkfFHV4jXpPFQw0GAbJ--0" vertex="1">
          <mxGeometry y="104" width="160" height="26" as="geometry" />
        </mxCell>
        <mxCell id="sxD2ZKE1S-4c3hexJ4eB-29" value="-email:String" style="text;align=left;verticalAlign=top;spacingLeft=4;spacingRight=4;overflow=hidden;rotatable=0;points=[[0,0.5],[1,0.5]];portConstraint=eastwest;rounded=0;shadow=0;html=0;" parent="zkfFHV4jXpPFQw0GAbJ--0" vertex="1">
          <mxGeometry y="130" width="160" height="26" as="geometry" />
        </mxCell>
        <mxCell id="sxD2ZKE1S-4c3hexJ4eB-118" value="-cpf:String" style="text;align=left;verticalAlign=top;spacingLeft=4;spacingRight=4;overflow=hidden;rotatable=0;points=[[0,0.5],[1,0.5]];portConstraint=eastwest;" parent="zkfFHV4jXpPFQw0GAbJ--0" vertex="1">
          <mxGeometry y="156" width="160" height="26" as="geometry" />
        </mxCell>
        <mxCell id="zkfFHV4jXpPFQw0GAbJ--4" value="" style="line;html=1;strokeWidth=1;align=left;verticalAlign=middle;spacingTop=-1;spacingLeft=3;spacingRight=3;rotatable=0;labelPosition=right;points=[];portConstraint=eastwest;" parent="zkfFHV4jXpPFQw0GAbJ--0" vertex="1">
          <mxGeometry y="182" width="160" height="14" as="geometry" />
        </mxCell>
        <mxCell id="sxD2ZKE1S-4c3hexJ4eB-99" value="+cadastrar:void" style="text;strokeColor=none;fillColor=none;align=left;verticalAlign=top;spacingLeft=4;spacingRight=4;overflow=hidden;rotatable=0;points=[[0,0.5],[1,0.5]];portConstraint=eastwest;" parent="zkfFHV4jXpPFQw0GAbJ--0" vertex="1">
          <mxGeometry y="196" width="160" height="24" as="geometry" />
        </mxCell>
        <mxCell id="sxD2ZKE1S-4c3hexJ4eB-100" value="+editar(idClente):void" style="text;strokeColor=none;fillColor=none;align=left;verticalAlign=top;spacingLeft=4;spacingRight=4;overflow=hidden;rotatable=0;points=[[0,0.5],[1,0.5]];portConstraint=eastwest;" parent="zkfFHV4jXpPFQw0GAbJ--0" vertex="1">
          <mxGeometry y="220" width="160" height="24" as="geometry" />
        </mxCell>
        <mxCell id="sxD2ZKE1S-4c3hexJ4eB-101" value="+deletar(idCliente):void" style="text;strokeColor=none;fillColor=none;align=left;verticalAlign=top;spacingLeft=4;spacingRight=4;overflow=hidden;rotatable=0;points=[[0,0.5],[1,0.5]];portConstraint=eastwest;" parent="zkfFHV4jXpPFQw0GAbJ--0" vertex="1">
          <mxGeometry y="244" width="160" height="24" as="geometry" />
        </mxCell>
        <mxCell id="sxD2ZKE1S-4c3hexJ4eB-103" value="+listar:ArrayList&lt;Cliente&gt;" style="text;strokeColor=none;fillColor=none;align=left;verticalAlign=top;spacingLeft=4;spacingRight=4;overflow=hidden;rotatable=0;points=[[0,0.5],[1,0.5]];portConstraint=eastwest;" parent="zkfFHV4jXpPFQw0GAbJ--0" vertex="1">
          <mxGeometry y="268" width="160" height="24" as="geometry" />
        </mxCell>
        <mxCell id="sxD2ZKE1S-4c3hexJ4eB-35" value="Veterinaro" style="swimlane;fontStyle=0;align=center;verticalAlign=top;childLayout=stackLayout;horizontal=1;startSize=26;horizontalStack=0;resizeParent=1;resizeLast=0;collapsible=1;marginBottom=0;rounded=0;shadow=0;strokeWidth=1;" parent="WIyWlLk6GJQsqaUBKTNV-1" vertex="1">
          <mxGeometry x="40" y="457" width="160" height="282" as="geometry">
            <mxRectangle x="550" y="140" width="160" height="26" as="alternateBounds" />
          </mxGeometry>
        </mxCell>
        <mxCell id="sxD2ZKE1S-4c3hexJ4eB-112" value="-idVeterinario:Integer" style="text;align=left;verticalAlign=top;spacingLeft=4;spacingRight=4;overflow=hidden;rotatable=0;points=[[0,0.5],[1,0.5]];portConstraint=eastwest;" parent="sxD2ZKE1S-4c3hexJ4eB-35" vertex="1">
          <mxGeometry y="26" width="160" height="30" as="geometry" />
        </mxCell>
        <mxCell id="sxD2ZKE1S-4c3hexJ4eB-10" value="-nome:String" style="text;align=left;verticalAlign=top;spacingLeft=4;spacingRight=4;overflow=hidden;rotatable=0;points=[[0,0.5],[1,0.5]];portConstraint=eastwest;" parent="sxD2ZKE1S-4c3hexJ4eB-35" vertex="1">
          <mxGeometry y="56" width="160" height="30" as="geometry" />
        </mxCell>
        <mxCell id="sxD2ZKE1S-4c3hexJ4eB-55" value="-crm:String" style="text;align=left;verticalAlign=top;spacingLeft=4;spacingRight=4;overflow=hidden;rotatable=0;points=[[0,0.5],[1,0.5]];portConstraint=eastwest;" parent="sxD2ZKE1S-4c3hexJ4eB-35" vertex="1">
          <mxGeometry y="86" width="160" height="26" as="geometry" />
        </mxCell>
        <mxCell id="sxD2ZKE1S-4c3hexJ4eB-98" value="-especialidade:String" style="text;align=left;verticalAlign=top;spacingLeft=4;spacingRight=4;overflow=hidden;rotatable=0;points=[[0,0.5],[1,0.5]];portConstraint=eastwest;" parent="sxD2ZKE1S-4c3hexJ4eB-35" vertex="1">
          <mxGeometry y="112" width="160" height="26" as="geometry" />
        </mxCell>
        <mxCell id="sxD2ZKE1S-4c3hexJ4eB-36" value="" style="line;html=1;strokeWidth=1;align=left;verticalAlign=middle;spacingTop=-1;spacingLeft=3;spacingRight=3;rotatable=0;labelPosition=right;points=[];portConstraint=eastwest;" parent="sxD2ZKE1S-4c3hexJ4eB-35" vertex="1">
          <mxGeometry y="138" width="160" height="22" as="geometry" />
        </mxCell>
        <mxCell id="sxD2ZKE1S-4c3hexJ4eB-113" value="+cadastrar:void" style="text;strokeColor=none;fillColor=none;align=left;verticalAlign=top;spacingLeft=4;spacingRight=4;overflow=hidden;rotatable=0;points=[[0,0.5],[1,0.5]];portConstraint=eastwest;" parent="sxD2ZKE1S-4c3hexJ4eB-35" vertex="1">
          <mxGeometry y="160" width="160" height="24" as="geometry" />
        </mxCell>
        <mxCell id="sxD2ZKE1S-4c3hexJ4eB-114" value="+deletar(idVeterinario):void" style="text;strokeColor=none;fillColor=none;align=left;verticalAlign=top;spacingLeft=4;spacingRight=4;overflow=hidden;rotatable=0;points=[[0,0.5],[1,0.5]];portConstraint=eastwest;" parent="sxD2ZKE1S-4c3hexJ4eB-35" vertex="1">
          <mxGeometry y="184" width="160" height="24" as="geometry" />
        </mxCell>
        <mxCell id="sxD2ZKE1S-4c3hexJ4eB-117" value="+listar:ArrayList&lt;Animal&gt;" style="text;strokeColor=none;fillColor=none;align=left;verticalAlign=top;spacingLeft=4;spacingRight=4;overflow=hidden;rotatable=0;points=[[0,0.5],[1,0.5]];portConstraint=eastwest;" parent="sxD2ZKE1S-4c3hexJ4eB-35" vertex="1">
          <mxGeometry y="208" width="160" height="24" as="geometry" />
        </mxCell>
        <mxCell id="sxD2ZKE1S-4c3hexJ4eB-116" value="+editar(Animal):void" style="text;strokeColor=none;fillColor=none;align=left;verticalAlign=top;spacingLeft=4;spacingRight=4;overflow=hidden;rotatable=0;points=[[0,0.5],[1,0.5]];portConstraint=eastwest;" parent="sxD2ZKE1S-4c3hexJ4eB-35" vertex="1">
          <mxGeometry y="232" width="160" height="24" as="geometry" />
        </mxCell>
        <mxCell id="zkfFHV4jXpPFQw0GAbJ--13" value="Animal" style="swimlane;fontStyle=0;align=center;verticalAlign=top;childLayout=stackLayout;horizontal=1;startSize=26;horizontalStack=0;resizeParent=1;resizeLast=0;collapsible=1;marginBottom=0;rounded=0;shadow=0;strokeWidth=1;" parent="WIyWlLk6GJQsqaUBKTNV-1" vertex="1">
          <mxGeometry x="370" y="54" width="160" height="346" as="geometry">
            <mxRectangle x="340" y="380" width="170" height="26" as="alternateBounds" />
          </mxGeometry>
        </mxCell>
        <mxCell id="zkfFHV4jXpPFQw0GAbJ--14" value="-idAnimal:Integer" style="text;align=left;verticalAlign=top;spacingLeft=4;spacingRight=4;overflow=hidden;rotatable=0;points=[[0,0.5],[1,0.5]];portConstraint=eastwest;" parent="zkfFHV4jXpPFQw0GAbJ--13" vertex="1">
          <mxGeometry y="26" width="160" height="24" as="geometry" />
        </mxCell>
        <mxCell id="sxD2ZKE1S-4c3hexJ4eB-109" value="-nome:String" style="text;align=left;verticalAlign=top;spacingLeft=4;spacingRight=4;overflow=hidden;rotatable=0;points=[[0,0.5],[1,0.5]];portConstraint=eastwest;" parent="zkfFHV4jXpPFQw0GAbJ--13" vertex="1">
          <mxGeometry y="50" width="160" height="24" as="geometry" />
        </mxCell>
        <mxCell id="sxD2ZKE1S-4c3hexJ4eB-22" value="-cor:String" style="text;align=left;verticalAlign=top;spacingLeft=4;spacingRight=4;overflow=hidden;rotatable=0;points=[[0,0.5],[1,0.5]];portConstraint=eastwest;" parent="zkfFHV4jXpPFQw0GAbJ--13" vertex="1">
          <mxGeometry y="74" width="160" height="24" as="geometry" />
        </mxCell>
        <mxCell id="sxD2ZKE1S-4c3hexJ4eB-21" value="-raÃ§a:String" style="text;align=left;verticalAlign=top;spacingLeft=4;spacingRight=4;overflow=hidden;rotatable=0;points=[[0,0.5],[1,0.5]];portConstraint=eastwest;" parent="zkfFHV4jXpPFQw0GAbJ--13" vertex="1">
          <mxGeometry y="98" width="160" height="24" as="geometry" />
        </mxCell>
        <mxCell id="sxD2ZKE1S-4c3hexJ4eB-23" value="-dataNascimento:Date" style="text;align=left;verticalAlign=top;spacingLeft=4;spacingRight=4;overflow=hidden;rotatable=0;points=[[0,0.5],[1,0.5]];portConstraint=eastwest;" parent="zkfFHV4jXpPFQw0GAbJ--13" vertex="1">
          <mxGeometry y="122" width="160" height="24" as="geometry" />
        </mxCell>
        <mxCell id="sxD2ZKE1S-4c3hexJ4eB-27" value="-observacao:String" style="text;align=left;verticalAlign=top;spacingLeft=4;spacingRight=4;overflow=hidden;rotatable=0;points=[[0,0.5],[1,0.5]];portConstraint=eastwest;" parent="zkfFHV4jXpPFQw0GAbJ--13" vertex="1">
          <mxGeometry y="146" width="160" height="24" as="geometry" />
        </mxCell>
        <mxCell id="sxD2ZKE1S-4c3hexJ4eB-28" value="-sexo:String" style="text;align=left;verticalAlign=top;spacingLeft=4;spacingRight=4;overflow=hidden;rotatable=0;points=[[0,0.5],[1,0.5]];portConstraint=eastwest;" parent="zkfFHV4jXpPFQw0GAbJ--13" vertex="1">
          <mxGeometry y="170" width="160" height="24" as="geometry" />
        </mxCell>
        <mxCell id="zkfFHV4jXpPFQw0GAbJ--15" value="" style="line;html=1;strokeWidth=1;align=left;verticalAlign=middle;spacingTop=-1;spacingLeft=3;spacingRight=3;rotatable=0;labelPosition=right;points=[];portConstraint=eastwest;" parent="zkfFHV4jXpPFQw0GAbJ--13" vertex="1">
          <mxGeometry y="194" width="160" height="16" as="geometry" />
        </mxCell>
        <mxCell id="sxD2ZKE1S-4c3hexJ4eB-104" value="+cadastrar:void" style="text;strokeColor=none;fillColor=none;align=left;verticalAlign=top;spacingLeft=4;spacingRight=4;overflow=hidden;rotatable=0;points=[[0,0.5],[1,0.5]];portConstraint=eastwest;" parent="zkfFHV4jXpPFQw0GAbJ--13" vertex="1">
          <mxGeometry y="210" width="160" height="24" as="geometry" />
        </mxCell>
        <mxCell id="sxD2ZKE1S-4c3hexJ4eB-108" value="+deletar(idAnimal):void" style="text;strokeColor=none;fillColor=none;align=left;verticalAlign=top;spacingLeft=4;spacingRight=4;overflow=hidden;rotatable=0;points=[[0,0.5],[1,0.5]];portConstraint=eastwest;" parent="zkfFHV4jXpPFQw0GAbJ--13" vertex="1">
          <mxGeometry y="234" width="160" height="24" as="geometry" />
        </mxCell>
        <mxCell id="sxD2ZKE1S-4c3hexJ4eB-105" value="+editar(Animal):void" style="text;strokeColor=none;fillColor=none;align=left;verticalAlign=top;spacingLeft=4;spacingRight=4;overflow=hidden;rotatable=0;points=[[0,0.5],[1,0.5]];portConstraint=eastwest;" parent="zkfFHV4jXpPFQw0GAbJ--13" vertex="1">
          <mxGeometry y="258" width="160" height="24" as="geometry" />
        </mxCell>
        <mxCell id="sxD2ZKE1S-4c3hexJ4eB-107" value="+listar:ArrayList&lt;Animal&gt;" style="text;strokeColor=none;fillColor=none;align=left;verticalAlign=top;spacingLeft=4;spacingRight=4;overflow=hidden;rotatable=0;points=[[0,0.5],[1,0.5]];portConstraint=eastwest;" parent="zkfFHV4jXpPFQw0GAbJ--13" vertex="1">
          <mxGeometry y="282" width="160" height="24" as="geometry" />
        </mxCell>
        <mxCell id="sxD2ZKE1S-4c3hexJ4eB-72" value="contido" style="endArrow=open;html=1;endSize=12;startArrow=diamondThin;startSize=14;startFill=0;edgeStyle=orthogonalEdgeStyle;exitX=0.5;exitY=1;exitDx=0;exitDy=0;entryX=0.5;entryY=0;entryDx=0;entryDy=0;" parent="WIyWlLk6GJQsqaUBKTNV-1" source="zkfFHV4jXpPFQw0GAbJ--13" target="sxD2ZKE1S-4c3hexJ4eB-0" edge="1">
          <mxGeometry relative="1" as="geometry">
            <mxPoint x="380" y="354.5" as="sourcePoint" />
            <mxPoint x="540" y="354.5" as="targetPoint" />
          </mxGeometry>
        </mxCell>
        <mxCell id="sxD2ZKE1S-4c3hexJ4eB-73" value="0..n" style="edgeLabel;resizable=0;html=1;align=left;verticalAlign=top;" parent="sxD2ZKE1S-4c3hexJ4eB-72" connectable="0" vertex="1">
          <mxGeometry x="-1" relative="1" as="geometry" />
        </mxCell>
        <mxCell id="sxD2ZKE1S-4c3hexJ4eB-74" value="1" style="edgeLabel;resizable=0;html=1;align=right;verticalAlign=top;" parent="sxD2ZKE1S-4c3hexJ4eB-72" connectable="0" vertex="1">
          <mxGeometry x="1" relative="1" as="geometry" />
        </mxCell>
        <mxCell id="sxD2ZKE1S-4c3hexJ4eB-75" value="agenda" style="endArrow=diamondThin;html=1;endSize=12;startArrow=none;startSize=14;startFill=0;edgeStyle=orthogonalEdgeStyle;exitX=0;exitY=0.5;exitDx=0;exitDy=0;entryX=1;entryY=0.5;entryDx=0;entryDy=0;endFill=1;" parent="WIyWlLk6GJQsqaUBKTNV-1" source="sxD2ZKE1S-4c3hexJ4eB-19" target="sxD2ZKE1S-4c3hexJ4eB-5" edge="1">
          <mxGeometry x="-0.058" relative="1" as="geometry">
            <mxPoint x="370" y="360" as="sourcePoint" />
            <mxPoint x="740" y="390" as="targetPoint" />
            <Array as="points">
              <mxPoint x="710" y="359" />
              <mxPoint x="640" y="359" />
              <mxPoint x="640" y="515" />
              <mxPoint x="530" y="515" />
            </Array>
            <mxPoint as="offset" />
          </mxGeometry>
        </mxCell>
        <mxCell id="sxD2ZKE1S-4c3hexJ4eB-76" value="0..n" style="edgeLabel;resizable=0;html=1;align=left;verticalAlign=top;" parent="sxD2ZKE1S-4c3hexJ4eB-75" connectable="0" vertex="1">
          <mxGeometry x="-1" relative="1" as="geometry">
            <mxPoint x="-27" as="offset" />
          </mxGeometry>
        </mxCell>
        <mxCell id="sxD2ZKE1S-4c3hexJ4eB-77" value="1" style="edgeLabel;resizable=0;html=1;align=right;verticalAlign=top;" parent="sxD2ZKE1S-4c3hexJ4eB-75" connectable="0" vertex="1">
          <mxGeometry x="1" relative="1" as="geometry">
            <mxPoint x="10" as="offset" />
          </mxGeometry>
        </mxCell>
        <mxCell id="sxD2ZKE1S-4c3hexJ4eB-61" value="Remedio" style="swimlane;fontStyle=0;align=center;verticalAlign=top;childLayout=stackLayout;horizontal=1;startSize=26;horizontalStack=0;resizeParent=1;resizeLast=0;collapsible=1;marginBottom=0;rounded=0;shadow=0;strokeWidth=1;" parent="WIyWlLk6GJQsqaUBKTNV-1" vertex="1">
          <mxGeometry x="980" y="573" width="240" height="288" as="geometry">
            <mxRectangle x="340" y="380" width="170" height="26" as="alternateBounds" />
          </mxGeometry>
        </mxCell>
        <mxCell id="sxD2ZKE1S-4c3hexJ4eB-62" value="-idRemedio:Integer" style="text;align=left;verticalAlign=top;spacingLeft=4;spacingRight=4;overflow=hidden;rotatable=0;points=[[0,0.5],[1,0.5]];portConstraint=eastwest;" parent="sxD2ZKE1S-4c3hexJ4eB-61" vertex="1">
          <mxGeometry y="26" width="240" height="26" as="geometry" />
        </mxCell>
        <mxCell id="sxD2ZKE1S-4c3hexJ4eB-135" value="-valor:Double" style="text;align=left;verticalAlign=top;spacingLeft=4;spacingRight=4;overflow=hidden;rotatable=0;points=[[0,0.5],[1,0.5]];portConstraint=eastwest;" parent="sxD2ZKE1S-4c3hexJ4eB-61" vertex="1">
          <mxGeometry y="52" width="240" height="26" as="geometry" />
        </mxCell>
        <mxCell id="sxD2ZKE1S-4c3hexJ4eB-65" value="-nome:String" style="text;align=left;verticalAlign=top;spacingLeft=4;spacingRight=4;overflow=hidden;rotatable=0;points=[[0,0.5],[1,0.5]];portConstraint=eastwest;" parent="sxD2ZKE1S-4c3hexJ4eB-61" vertex="1">
          <mxGeometry y="78" width="240" height="26" as="geometry" />
        </mxCell>
        <mxCell id="sxD2ZKE1S-4c3hexJ4eB-64" value="-quantidade:Int" style="text;align=left;verticalAlign=top;spacingLeft=4;spacingRight=4;overflow=hidden;rotatable=0;points=[[0,0.5],[1,0.5]];portConstraint=eastwest;" parent="sxD2ZKE1S-4c3hexJ4eB-61" vertex="1">
          <mxGeometry y="104" width="240" height="26" as="geometry" />
        </mxCell>
        <mxCell id="sxD2ZKE1S-4c3hexJ4eB-63" value="" style="line;html=1;strokeWidth=1;align=left;verticalAlign=middle;spacingTop=-1;spacingLeft=3;spacingRight=3;rotatable=0;labelPosition=right;points=[];portConstraint=eastwest;" parent="sxD2ZKE1S-4c3hexJ4eB-61" vertex="1">
          <mxGeometry y="130" width="240" height="8" as="geometry" />
        </mxCell>
        <mxCell id="sxD2ZKE1S-4c3hexJ4eB-129" value="+cadastrar:void" style="text;strokeColor=none;fillColor=none;align=left;verticalAlign=top;spacingLeft=4;spacingRight=4;overflow=hidden;rotatable=0;points=[[0,0.5],[1,0.5]];portConstraint=eastwest;" parent="sxD2ZKE1S-4c3hexJ4eB-61" vertex="1">
          <mxGeometry y="138" width="240" height="24" as="geometry" />
        </mxCell>
        <mxCell id="sxD2ZKE1S-4c3hexJ4eB-133" value="+deletar(idRemedio&#xa;):void" style="text;strokeColor=none;fillColor=none;align=left;verticalAlign=top;spacingLeft=4;spacingRight=4;overflow=hidden;rotatable=0;points=[[0,0.5],[1,0.5]];portConstraint=eastwest;" parent="sxD2ZKE1S-4c3hexJ4eB-61" vertex="1">
          <mxGeometry y="162" width="240" height="40" as="geometry" />
        </mxCell>
        <mxCell id="sxD2ZKE1S-4c3hexJ4eB-131" value="+editar(Remedio):void" style="text;strokeColor=none;fillColor=none;align=left;verticalAlign=top;spacingLeft=4;spacingRight=4;overflow=hidden;rotatable=0;points=[[0,0.5],[1,0.5]];portConstraint=eastwest;" parent="sxD2ZKE1S-4c3hexJ4eB-61" vertex="1">
          <mxGeometry y="202" width="240" height="24" as="geometry" />
        </mxCell>
        <mxCell id="sxD2ZKE1S-4c3hexJ4eB-130" value="+listar:ArrayList&lt;Remedio&gt;" style="text;strokeColor=none;fillColor=none;align=left;verticalAlign=top;spacingLeft=4;spacingRight=4;overflow=hidden;rotatable=0;points=[[0,0.5],[1,0.5]];portConstraint=eastwest;" parent="sxD2ZKE1S-4c3hexJ4eB-61" vertex="1">
          <mxGeometry y="226" width="240" height="24" as="geometry" />
        </mxCell>
        <mxCell id="sxD2ZKE1S-4c3hexJ4eB-67" value="Cirurgia" style="swimlane;fontStyle=0;align=center;verticalAlign=top;childLayout=stackLayout;horizontal=1;startSize=26;horizontalStack=0;resizeParent=1;resizeLast=0;collapsible=1;marginBottom=0;rounded=0;shadow=0;strokeWidth=1;" parent="WIyWlLk6GJQsqaUBKTNV-1" vertex="1">
          <mxGeometry x="667" y="790" width="160" height="112" as="geometry">
            <mxRectangle x="340" y="380" width="170" height="26" as="alternateBounds" />
          </mxGeometry>
        </mxCell>
        <mxCell id="sxD2ZKE1S-4c3hexJ4eB-138" value="-idCirurgia:Integer" style="text;align=left;verticalAlign=top;spacingLeft=4;spacingRight=4;overflow=hidden;rotatable=0;points=[[0,0.5],[1,0.5]];portConstraint=eastwest;" parent="sxD2ZKE1S-4c3hexJ4eB-67" vertex="1">
          <mxGeometry y="26" width="160" height="26" as="geometry" />
        </mxCell>
        <mxCell id="sxD2ZKE1S-4c3hexJ4eB-68" value="-data:Date" style="text;align=left;verticalAlign=top;spacingLeft=4;spacingRight=4;overflow=hidden;rotatable=0;points=[[0,0.5],[1,0.5]];portConstraint=eastwest;" parent="sxD2ZKE1S-4c3hexJ4eB-67" vertex="1">
          <mxGeometry y="52" width="160" height="26" as="geometry" />
        </mxCell>
        <mxCell id="sxD2ZKE1S-4c3hexJ4eB-69" value="-procedimentoCirurgico:String" style="text;align=left;verticalAlign=top;spacingLeft=4;spacingRight=4;overflow=hidden;rotatable=0;points=[[0,0.5],[1,0.5]];portConstraint=eastwest;" parent="sxD2ZKE1S-4c3hexJ4eB-67" vertex="1">
          <mxGeometry y="78" width="160" height="26" as="geometry" />
        </mxCell>
        <mxCell id="sxD2ZKE1S-4c3hexJ4eB-70" value="" style="line;html=1;strokeWidth=1;align=left;verticalAlign=middle;spacingTop=-1;spacingLeft=3;spacingRight=3;rotatable=0;labelPosition=right;points=[];portConstraint=eastwest;" parent="sxD2ZKE1S-4c3hexJ4eB-67" vertex="1">
          <mxGeometry y="104" width="160" height="8" as="geometry" />
        </mxCell>
        <mxCell id="sxD2ZKE1S-4c3hexJ4eB-80" value="tem" style="endArrow=none;html=1;endSize=12;startArrow=diamondThin;startSize=14;startFill=1;edgeStyle=orthogonalEdgeStyle;exitX=-0.012;exitY=0.269;exitDx=0;exitDy=0;exitPerimeter=0;endFill=0;" parent="WIyWlLk6GJQsqaUBKTNV-1" source="sxD2ZKE1S-4c3hexJ4eB-65" target="zkfFHV4jXpPFQw0GAbJ--23" edge="1">
          <mxGeometry relative="1" as="geometry">
            <mxPoint x="680" y="560" as="sourcePoint" />
            <mxPoint x="840" y="560" as="targetPoint" />
          </mxGeometry>
        </mxCell>
        <mxCell id="sxD2ZKE1S-4c3hexJ4eB-81" value="0..n" style="edgeLabel;resizable=0;html=1;align=left;verticalAlign=top;" parent="sxD2ZKE1S-4c3hexJ4eB-80" connectable="0" vertex="1">
          <mxGeometry x="-1" relative="1" as="geometry">
            <mxPoint x="-22.08" as="offset" />
          </mxGeometry>
        </mxCell>
        <mxCell id="sxD2ZKE1S-4c3hexJ4eB-82" value="1" style="edgeLabel;resizable=0;html=1;align=right;verticalAlign=top;" parent="sxD2ZKE1S-4c3hexJ4eB-80" connectable="0" vertex="1">
          <mxGeometry x="1" relative="1" as="geometry">
            <mxPoint x="11" y="2" as="offset" />
          </mxGeometry>
        </mxCell>
        <mxCell id="zkfFHV4jXpPFQw0GAbJ--17" value="Tratamento" style="swimlane;fontStyle=0;align=center;verticalAlign=top;childLayout=stackLayout;horizontal=1;startSize=30;horizontalStack=0;resizeParent=1;resizeLast=0;collapsible=1;marginBottom=0;rounded=0;shadow=0;strokeWidth=1;" parent="WIyWlLk6GJQsqaUBKTNV-1" vertex="1">
          <mxGeometry x="667" y="560" width="160" height="116" as="geometry">
            <mxRectangle x="550" y="140" width="160" height="26" as="alternateBounds" />
          </mxGeometry>
        </mxCell>
        <mxCell id="sxD2ZKE1S-4c3hexJ4eB-136" value="-idTratamento:Integer" style="text;align=left;verticalAlign=top;spacingLeft=4;spacingRight=4;overflow=hidden;rotatable=0;points=[[0,0.5],[1,0.5]];portConstraint=eastwest;rounded=0;shadow=0;html=0;" parent="zkfFHV4jXpPFQw0GAbJ--17" vertex="1">
          <mxGeometry y="30" width="160" height="26" as="geometry" />
        </mxCell>
        <mxCell id="sxD2ZKE1S-4c3hexJ4eB-52" value="-descricaoTratamento:String" style="text;align=left;verticalAlign=top;spacingLeft=4;spacingRight=4;overflow=hidden;rotatable=0;points=[[0,0.5],[1,0.5]];portConstraint=eastwest;rounded=0;shadow=0;html=0;" parent="zkfFHV4jXpPFQw0GAbJ--17" vertex="1">
          <mxGeometry y="56" width="160" height="26" as="geometry" />
        </mxCell>
        <mxCell id="zkfFHV4jXpPFQw0GAbJ--23" value="" style="line;html=1;strokeWidth=1;align=left;verticalAlign=middle;spacingTop=-1;spacingLeft=3;spacingRight=3;rotatable=0;labelPosition=right;points=[];portConstraint=eastwest;" parent="zkfFHV4jXpPFQw0GAbJ--17" vertex="1">
          <mxGeometry y="82" width="160" height="34" as="geometry" />
        </mxCell>
        <mxCell id="sxD2ZKE1S-4c3hexJ4eB-83" value="realiza" style="endArrow=diamondThin;html=1;endSize=12;startArrow=none;startSize=14;startFill=0;edgeStyle=orthogonalEdgeStyle;exitX=1;exitY=0.5;exitDx=0;exitDy=0;entryX=0.006;entryY=0.923;entryDx=0;entryDy=0;entryPerimeter=0;endFill=1;" parent="WIyWlLk6GJQsqaUBKTNV-1" source="sxD2ZKE1S-4c3hexJ4eB-19" target="sxD2ZKE1S-4c3hexJ4eB-57" edge="1">
          <mxGeometry relative="1" as="geometry">
            <mxPoint x="810" y="470" as="sourcePoint" />
            <mxPoint x="970" y="470" as="targetPoint" />
          </mxGeometry>
        </mxCell>
        <mxCell id="sxD2ZKE1S-4c3hexJ4eB-84" value="1..n" style="edgeLabel;resizable=0;html=1;align=left;verticalAlign=top;" parent="sxD2ZKE1S-4c3hexJ4eB-83" connectable="0" vertex="1">
          <mxGeometry x="-1" relative="1" as="geometry" />
        </mxCell>
        <mxCell id="sxD2ZKE1S-4c3hexJ4eB-85" value="1" style="edgeLabel;resizable=0;html=1;align=right;verticalAlign=top;" parent="sxD2ZKE1S-4c3hexJ4eB-83" connectable="0" vertex="1">
          <mxGeometry x="1" relative="1" as="geometry">
            <mxPoint x="-3" as="offset" />
          </mxGeometry>
        </mxCell>
        <mxCell id="sxD2ZKE1S-4c3hexJ4eB-56" value="Laboratorio" style="swimlane;fontStyle=0;align=center;verticalAlign=top;childLayout=stackLayout;horizontal=1;startSize=26;horizontalStack=0;resizeParent=1;resizeLast=0;collapsible=1;marginBottom=0;rounded=0;shadow=0;strokeWidth=1;" parent="WIyWlLk6GJQsqaUBKTNV-1" vertex="1">
          <mxGeometry x="1050" y="308" width="220" height="236" as="geometry">
            <mxRectangle x="340" y="380" width="170" height="26" as="alternateBounds" />
          </mxGeometry>
        </mxCell>
        <mxCell id="sxD2ZKE1S-4c3hexJ4eB-57" value="-idLaboratorio:Integer" style="text;align=left;verticalAlign=top;spacingLeft=4;spacingRight=4;overflow=hidden;rotatable=0;points=[[0,0.5],[1,0.5]];portConstraint=eastwest;" parent="sxD2ZKE1S-4c3hexJ4eB-56" vertex="1">
          <mxGeometry y="26" width="220" height="26" as="geometry" />
        </mxCell>
        <mxCell id="sxD2ZKE1S-4c3hexJ4eB-134" value="-nome:String" style="text;align=left;verticalAlign=top;spacingLeft=4;spacingRight=4;overflow=hidden;rotatable=0;points=[[0,0.5],[1,0.5]];portConstraint=eastwest;" parent="sxD2ZKE1S-4c3hexJ4eB-56" vertex="1">
          <mxGeometry y="52" width="220" height="26" as="geometry" />
        </mxCell>
        <mxCell id="sxD2ZKE1S-4c3hexJ4eB-58" value="" style="line;html=1;strokeWidth=1;align=left;verticalAlign=middle;spacingTop=-1;spacingLeft=3;spacingRight=3;rotatable=0;labelPosition=right;points=[];portConstraint=eastwest;" parent="sxD2ZKE1S-4c3hexJ4eB-56" vertex="1">
          <mxGeometry y="78" width="220" height="8" as="geometry" />
        </mxCell>
        <mxCell id="sxD2ZKE1S-4c3hexJ4eB-124" value="+cadastrar:void" style="text;strokeColor=none;fillColor=none;align=left;verticalAlign=top;spacingLeft=4;spacingRight=4;overflow=hidden;rotatable=0;points=[[0,0.5],[1,0.5]];portConstraint=eastwest;" parent="sxD2ZKE1S-4c3hexJ4eB-56" vertex="1">
          <mxGeometry y="86" width="220" height="24" as="geometry" />
        </mxCell>
        <mxCell id="sxD2ZKE1S-4c3hexJ4eB-128" value="+listar:ArrayList&lt;Laboratorio&gt;" style="text;strokeColor=none;fillColor=none;align=left;verticalAlign=top;spacingLeft=4;spacingRight=4;overflow=hidden;rotatable=0;points=[[0,0.5],[1,0.5]];portConstraint=eastwest;" parent="sxD2ZKE1S-4c3hexJ4eB-56" vertex="1">
          <mxGeometry y="110" width="220" height="24" as="geometry" />
        </mxCell>
        <mxCell id="sxD2ZKE1S-4c3hexJ4eB-127" value="+editar(Laboratorio):void" style="text;strokeColor=none;fillColor=none;align=left;verticalAlign=top;spacingLeft=4;spacingRight=4;overflow=hidden;rotatable=0;points=[[0,0.5],[1,0.5]];portConstraint=eastwest;" parent="sxD2ZKE1S-4c3hexJ4eB-56" vertex="1">
          <mxGeometry y="134" width="220" height="24" as="geometry" />
        </mxCell>
        <mxCell id="sxD2ZKE1S-4c3hexJ4eB-125" value="+deletar(idLaboratorio&#xa;):void" style="text;strokeColor=none;fillColor=none;align=left;verticalAlign=top;spacingLeft=4;spacingRight=4;overflow=hidden;rotatable=0;points=[[0,0.5],[1,0.5]];portConstraint=eastwest;" parent="sxD2ZKE1S-4c3hexJ4eB-56" vertex="1">
          <mxGeometry y="158" width="220" height="40" as="geometry" />
        </mxCell>
        <mxCell id="sxD2ZKE1S-4c3hexJ4eB-92" value="marca" style="endArrow=diamondThin;html=1;endSize=12;startArrow=none;startSize=14;startFill=0;edgeStyle=orthogonalEdgeStyle;exitX=0;exitY=0.269;exitDx=0;exitDy=0;exitPerimeter=0;entryX=0.5;entryY=1;entryDx=0;entryDy=0;endFill=1;" parent="WIyWlLk6GJQsqaUBKTNV-1" source="sxD2ZKE1S-4c3hexJ4eB-69" target="sxD2ZKE1S-4c3hexJ4eB-0" edge="1">
          <mxGeometry relative="1" as="geometry">
            <mxPoint x="630" y="560" as="sourcePoint" />
            <mxPoint x="790" y="560" as="targetPoint" />
          </mxGeometry>
        </mxCell>
        <mxCell id="sxD2ZKE1S-4c3hexJ4eB-93" value="0..n" style="edgeLabel;resizable=0;html=1;align=left;verticalAlign=top;" parent="sxD2ZKE1S-4c3hexJ4eB-92" connectable="0" vertex="1">
          <mxGeometry x="-1" relative="1" as="geometry">
            <mxPoint x="-27" as="offset" />
          </mxGeometry>
        </mxCell>
        <mxCell id="sxD2ZKE1S-4c3hexJ4eB-94" value="1" style="edgeLabel;resizable=0;html=1;align=right;verticalAlign=top;" parent="sxD2ZKE1S-4c3hexJ4eB-92" connectable="0" vertex="1">
          <mxGeometry x="1" relative="1" as="geometry">
            <mxPoint x="-5" y="6" as="offset" />
          </mxGeometry>
        </mxCell>
        <mxCell id="sxD2ZKE1S-4c3hexJ4eB-95" value="marca" style="endArrow=diamondThin;html=1;startArrow=none;startFill=0;entryX=1;entryY=0.75;entryDx=0;entryDy=0;endFill=1;edgeStyle=orthogonalEdgeStyle;endSize=11;" parent="WIyWlLk6GJQsqaUBKTNV-1" target="sxD2ZKE1S-4c3hexJ4eB-0" edge="1">
          <mxGeometry relative="1" as="geometry">
            <mxPoint x="670" y="620" as="sourcePoint" />
            <mxPoint x="790" y="560" as="targetPoint" />
          </mxGeometry>
        </mxCell>
        <mxCell id="sxD2ZKE1S-4c3hexJ4eB-96" value="0..n" style="edgeLabel;resizable=0;html=1;align=left;verticalAlign=top;" parent="sxD2ZKE1S-4c3hexJ4eB-95" connectable="0" vertex="1">
          <mxGeometry x="-1" relative="1" as="geometry">
            <mxPoint x="-30" as="offset" />
          </mxGeometry>
        </mxCell>
        <mxCell id="sxD2ZKE1S-4c3hexJ4eB-97" value="1" style="edgeLabel;resizable=0;html=1;align=right;verticalAlign=top;" parent="sxD2ZKE1S-4c3hexJ4eB-95" connectable="0" vertex="1">
          <mxGeometry x="1" relative="1" as="geometry">
            <mxPoint x="12" y="5" as="offset" />
          </mxGeometry>
        </mxCell>
        <mxCell id="sxD2ZKE1S-4c3hexJ4eB-18" value="Exame" style="swimlane;fontStyle=0;align=center;verticalAlign=top;childLayout=stackLayout;horizontal=1;startSize=26;horizontalStack=0;resizeParent=1;resizeLast=0;collapsible=1;marginBottom=0;rounded=0;shadow=0;strokeWidth=1;" parent="WIyWlLk6GJQsqaUBKTNV-1" vertex="1">
          <mxGeometry x="730" y="320" width="160" height="86" as="geometry">
            <mxRectangle x="340" y="380" width="170" height="26" as="alternateBounds" />
          </mxGeometry>
        </mxCell>
        <mxCell id="sxD2ZKE1S-4c3hexJ4eB-19" value="-idExame:Integer" style="text;align=left;verticalAlign=top;spacingLeft=4;spacingRight=4;overflow=hidden;rotatable=0;points=[[0,0.5],[1,0.5]];portConstraint=eastwest;" parent="sxD2ZKE1S-4c3hexJ4eB-18" vertex="1">
          <mxGeometry y="26" width="160" height="26" as="geometry" />
        </mxCell>
        <mxCell id="sxD2ZKE1S-4c3hexJ4eB-137" value="-descricaoExame:String" style="text;align=left;verticalAlign=top;spacingLeft=4;spacingRight=4;overflow=hidden;rotatable=0;points=[[0,0.5],[1,0.5]];portConstraint=eastwest;" parent="sxD2ZKE1S-4c3hexJ4eB-18" vertex="1">
          <mxGeometry y="52" width="160" height="26" as="geometry" />
        </mxCell>
        <mxCell id="sxD2ZKE1S-4c3hexJ4eB-20" value="" style="line;html=1;strokeWidth=1;align=left;verticalAlign=middle;spacingTop=-1;spacingLeft=3;spacingRight=3;rotatable=0;labelPosition=right;points=[];portConstraint=eastwest;" parent="sxD2ZKE1S-4c3hexJ4eB-18" vertex="1">
          <mxGeometry y="78" width="160" height="8" as="geometry" />
        </mxCell>
        <mxCell id="sxD2ZKE1S-4c3hexJ4eB-0" value="Consulta" style="swimlane;fontStyle=0;align=center;verticalAlign=top;childLayout=stackLayout;horizontal=1;startSize=26;horizontalStack=0;resizeParent=1;resizeLast=0;collapsible=1;marginBottom=0;rounded=0;shadow=0;strokeWidth=1;" parent="WIyWlLk6GJQsqaUBKTNV-1" vertex="1">
          <mxGeometry x="370" y="530" width="160" height="278" as="geometry">
            <mxRectangle x="550" y="140" width="160" height="26" as="alternateBounds" />
          </mxGeometry>
        </mxCell>
        <mxCell id="sxD2ZKE1S-4c3hexJ4eB-3" value="-idConsulta:Integer" style="text;align=left;verticalAlign=top;spacingLeft=4;spacingRight=4;overflow=hidden;rotatable=0;points=[[0,0.5],[1,0.5]];portConstraint=eastwest;rounded=0;shadow=0;html=0;" parent="sxD2ZKE1S-4c3hexJ4eB-0" vertex="1">
          <mxGeometry y="26" width="160" height="26" as="geometry" />
        </mxCell>
        <mxCell id="sxD2ZKE1S-4c3hexJ4eB-5" value="-resumo:String" style="text;align=left;verticalAlign=top;spacingLeft=4;spacingRight=4;overflow=hidden;rotatable=0;points=[[0,0.5],[1,0.5]];portConstraint=eastwest;rounded=0;shadow=0;html=0;" parent="sxD2ZKE1S-4c3hexJ4eB-0" vertex="1">
          <mxGeometry y="52" width="160" height="26" as="geometry" />
        </mxCell>
        <mxCell id="sxD2ZKE1S-4c3hexJ4eB-54" value="-tipoConsulta:String" style="text;align=left;verticalAlign=top;spacingLeft=4;spacingRight=4;overflow=hidden;rotatable=0;points=[[0,0.5],[1,0.5]];portConstraint=eastwest;rounded=0;shadow=0;html=0;" parent="sxD2ZKE1S-4c3hexJ4eB-0" vertex="1">
          <mxGeometry y="78" width="160" height="26" as="geometry" />
        </mxCell>
        <mxCell id="sxD2ZKE1S-4c3hexJ4eB-119" value="-data:Date" style="text;align=left;verticalAlign=top;spacingLeft=4;spacingRight=4;overflow=hidden;rotatable=0;points=[[0,0.5],[1,0.5]];portConstraint=eastwest;rounded=0;shadow=0;html=0;" parent="sxD2ZKE1S-4c3hexJ4eB-0" vertex="1">
          <mxGeometry y="104" width="160" height="26" as="geometry" />
        </mxCell>
        <mxCell id="sxD2ZKE1S-4c3hexJ4eB-6" value="" style="line;html=1;strokeWidth=1;align=left;verticalAlign=middle;spacingTop=-1;spacingLeft=3;spacingRight=3;rotatable=0;labelPosition=right;points=[];portConstraint=eastwest;" parent="sxD2ZKE1S-4c3hexJ4eB-0" vertex="1">
          <mxGeometry y="130" width="160" height="30" as="geometry" />
        </mxCell>
        <mxCell id="sxD2ZKE1S-4c3hexJ4eB-123" value="+listar:ArrayList&lt;Cosulta&gt;" style="text;strokeColor=none;fillColor=none;align=left;verticalAlign=top;spacingLeft=4;spacingRight=4;overflow=hidden;rotatable=0;points=[[0,0.5],[1,0.5]];portConstraint=eastwest;" parent="sxD2ZKE1S-4c3hexJ4eB-0" vertex="1">
          <mxGeometry y="160" width="160" height="24" as="geometry" />
        </mxCell>
        <mxCell id="sxD2ZKE1S-4c3hexJ4eB-122" value="+editar(idConsulta):void" style="text;strokeColor=none;fillColor=none;align=left;verticalAlign=top;spacingLeft=4;spacingRight=4;overflow=hidden;rotatable=0;points=[[0,0.5],[1,0.5]];portConstraint=eastwest;" parent="sxD2ZKE1S-4c3hexJ4eB-0" vertex="1">
          <mxGeometry y="184" width="160" height="24" as="geometry" />
        </mxCell>
        <mxCell id="sxD2ZKE1S-4c3hexJ4eB-120" value="+cadastrar:void" style="text;strokeColor=none;fillColor=none;align=left;verticalAlign=top;spacingLeft=4;spacingRight=4;overflow=hidden;rotatable=0;points=[[0,0.5],[1,0.5]];portConstraint=eastwest;" parent="sxD2ZKE1S-4c3hexJ4eB-0" vertex="1">
          <mxGeometry y="208" width="160" height="24" as="geometry" />
        </mxCell>
      </root>
    </mxGraphModel>
  </diagram>
</mxfile>
